<svg xmlns="http://www.w3.org/2000/svg" xmlns:xlink="http://www.w3.org/1999/xlink" width="851" zoomAndPan="magnify" viewBox="0 0 638.25 236.249991" height="315" preserveAspectRatio="xMidYMid meet" version="1.0"><defs><g/></defs><g fill="#2b2b2b" fill-opacity="1"><g transform="translate(-3.851769, 163.73021)"><g><path d="M 50.453125 0 L 50.453125 -80.734375 L 10.09375 -80.734375 L 10.09375 -100.90625 L 111 -100.90625 L 111 -80.734375 L 70.640625 -80.734375 L 70.640625 0 Z M 50.453125 0 "/></g></g></g><g fill="#2b2b2b" fill-opacity="1"><g transform="translate(127.172314, 163.73021)"><g><path d="M 10.09375 0 L 10.09375 -100.90625 L 90.8125 -100.90625 L 90.8125 -80.734375 L 30.265625 -80.734375 L 30.265625 -40.359375 L 90.8125 -40.359375 L 90.8125 -20.1875 L 30.265625 -20.1875 L 30.265625 0 Z M 90.8125 0 L 90.8125 -20.1875 L 111 -20.1875 L 111 0 Z M 90.8125 -40.359375 L 90.8125 -80.734375 L 111 -80.734375 L 111 -40.359375 Z M 90.8125 -40.359375 "/></g></g></g><g fill="#2b2b2b" fill-opacity="1"><g transform="translate(258.196396, 163.73021)"><g><path d="M 90.8125 -20.1875 L 90.8125 0 L 30.265625 0 L 30.265625 -20.1875 Z M 10.09375 -20.1875 L 10.09375 -80.734375 L 30.265625 -80.734375 L 30.265625 -20.1875 Z M 30.265625 -80.734375 L 30.265625 -100.90625 L 90.8125 -100.90625 L 90.8125 -80.734375 Z M 90.8125 -20.1875 L 90.8125 -80.734375 L 111 -80.734375 L 111 -20.1875 Z M 90.8125 -20.1875 "/></g></g></g><g fill="#2b2b2b" fill-opacity="1"><g transform="translate(389.220456, 163.73021)"><g><path d="M 90.8125 -20.1875 L 90.8125 0 L 30.265625 0 L 30.265625 -20.1875 Z M 10.09375 -20.1875 L 10.09375 -80.734375 L 30.265625 -80.734375 L 30.265625 -20.1875 Z M 30.265625 -80.734375 L 30.265625 -100.90625 L 90.8125 -100.90625 L 90.8125 -80.734375 Z M 90.8125 -20.1875 L 90.8125 -80.734375 L 111 -80.734375 L 111 -20.1875 Z M 90.8125 -20.1875 "/></g></g></g><g fill="#2b2b2b" fill-opacity="1"><g transform="translate(520.244561, 163.73021)"><g><path d="M 50.453125 0 L 50.453125 -80.734375 L 10.09375 -80.734375 L 10.09375 -100.90625 L 111 -100.90625 L 111 -80.734375 L 70.640625 -80.734375 L 70.640625 0 Z M 50.453125 0 "/></g></g></g></svg>